<?xml version="1.0" encoding="iso-8859-1"?>
<svg version="1.1" id="Layer_1" xmlns="http://www.w3.org/2000/svg" xmlns:xlink="http://www.w3.org/1999/xlink" x="0px" y="0px"
	 viewBox="0 0 512 512" style="enable-background:new 0 0 512 512;" xml:space="preserve">
<path style="fill:#FFEBD2;" d="M489.148,10.564c0,0-6.905,46.193-16.494,63.519c-8.767,15.837-95.713,23.005-95.713,23.005
	l3.579,11.354c-7.324-10.361-17.721-19.163-29.999-24.589c-22.239-9.83-60.9-14.496-94.56-14.496s-72.321,4.666-94.56,14.496
	c-12.504,5.526-23.058,14.553-30.4,25.163l4.057-11.928c0,0-86.947-7.168-95.713-23.005C29.755,56.758,22.85,10.564,22.85,10.564
	s-27.943,63.26-7.163,87.61c19.641,23.014,103.296,46.172,103.296,46.172l0.911-2.679c-0.014,1.229,0.007,2.457,0.089,3.678
	l0.005-0.003c0.406,28.297,19.817,237.544,57.187,316.451l2.071-0.356l-0.139,0.576c-4.839,20.137,10.532,39.46,31.242,39.272
	l93.537,0.15c20.709-0.188,35.727-19.789,30.522-39.832l-0.304-1.17l0.645,1.362c37.369-78.908,56.781-288.155,57.187-316.451
	l0.005,0.003c0.027-0.398,0.034-0.798,0.051-1.197c4.358-1.195,85.212-23.583,104.321-45.974
	C517.093,73.823,489.148,10.564,489.148,10.564z"/>
<path style="fill:#EBB4A0;" d="M328.987,438.454l-10.693-18.201c-5.217-8.882-14.615-14.315-24.756-14.315h-73.533
	c-10.141,0-19.539,5.434-24.756,14.315l-10.693,18.201c-6.392,10.879-5.544,23.327-5.544,36.015
	c0,15.146,12.022,27.423,26.852,27.423h100.272c14.831,0,26.852-12.278,26.852-27.423
	C332.987,461.781,335.378,449.333,328.987,438.454z"/>
<path style="fill:#FFDEB7;" d="M380.521,108.443c-3.191-4.516-6.969-8.735-11.229-12.508c-5.276-3.277-12.247-6.494-20.158-9.565
	c-1.259-1.522-2.614-3.097-4.039-4.69c-22.743-8.343-58.062-12.321-89.133-12.321c-31.019,0-66.273,3.966-89.02,12.28
	c-1.44,1.607-2.807,3.196-4.076,4.731c-8.035,3.119-15.102,6.388-20.406,9.718c-4.37,3.894-8.227,8.257-11.459,12.928l1.447-4.255
	c-10.953,12.056-12.245,20.185-12.398,37.046c10.966,0.51,24.647,1.078,31.162,1.078c48.797,0,89.781-22.812,103.688-32.938
	l-7.707,32.066c25.328-0.23,70.452-22.638,79.693-32.722l8.29,31.922c24.809-16.192,24.809-24.191,24.809-24.191
	s16.168,0.019,30.811,8.87c-1.396-7.661-4.483-13.746-11.532-21.446L380.521,108.443z"/>
<g>
	<path style="fill:#6B676E;" d="M120.502,128.02c-0.596,4.48-0.761,9.625-1.402,15.856c-2.383,23.188,20.792,174.854,34.589,256.209
		c0,0,49.562-82.008,50.667-97.967C205.461,286.177,222.239,159.304,120.502,128.02z"/>
	<path style="fill:#6B676E;" d="M390.529,128.02c0.595,4.48,0.251,9.698,1.401,15.856c4.33,23.19-18.643,174.857-34.589,256.209
		c0,0-49.562-82.008-50.667-97.967C305.57,286.177,288.792,159.304,390.529,128.02z"/>
</g>
<g>
	<path style="fill:#464655;" d="M71.305,176.766c-13.927,0.126-63.465,22.463-63.303,40.368
		c0.16,17.582,85.025,67.647,117.761,17.69l-6.566-42.577C99.392,202.377,85.231,176.639,71.305,176.766z"/>
	<path style="fill:#464655;" d="M439.895,173.924c-13.927,0.127-27.618,26.117-47.603,16.35l-5.791,42.69
		c33.639,49.352,117.58-2.247,117.42-19.829C503.758,195.23,453.821,173.799,439.895,173.924z"/>
</g>
<g>
	<path style="fill:#D7A091;" d="M222.987,454.078c-2.112,0-4.224-0.806-5.835-2.418l-16.506-16.506
		c-3.224-3.224-3.224-8.447,0-11.671c3.224-3.224,8.447-3.224,11.671,0l16.506,16.506c3.224,3.224,3.224,8.446,0,11.67
		C227.211,453.272,225.099,454.078,222.987,454.078z"/>
	<path style="fill:#D7A091;" d="M289.013,454.078c-2.112,0-4.224-0.806-5.835-2.418c-3.224-3.224-3.224-8.446,0-11.67l16.507-16.506
		c3.224-3.224,8.447-3.224,11.671,0c3.224,3.224,3.224,8.447,0,11.671l-16.506,16.506
		C293.237,453.272,291.125,454.078,289.013,454.078z"/>
</g>
<path fill="#464655" d="M167.12,216.128c-0.024,0-0.122,0-0.146,0.001c-8.799,0.08-15.891,7.303-15.81,16.101
	c0.079,8.719,7.237,15.812,15.955,15.812c0.024,0,0.122,0,0.146-0.001c4.262-0.039,8.254-1.735,11.24-4.776
	c2.987-3.042,4.61-7.063,4.571-11.325C182.996,223.221,175.839,216.128,167.12,216.128z M167.119,233.137v-1.092l0.007,7.999
	L167.119,233.137z"/>
<path fill="#464655" d="M342.196,214.537c-0.024,0-0.123,0-0.147,0.001c-4.262,0.039-8.254,1.735-11.24,4.775c-2.987,3.042-4.61,7.064-4.571,11.326
	c0.079,8.719,7.237,15.811,15.954,15.811c0.024,0,0.123,0,0.147-0.001c8.799-0.08,15.891-7.303,15.81-16.101
	C358.072,221.63,350.915,214.537,342.196,214.537z M342.193,238.452v-7.999h0.001L342.193,238.452z"/>

</svg>
